{"title":"Aatma (2013) (Audio Cleaned) Untouched Scam Hindi Horror Movie","uid":8287144,"size":454381722,"categoryP":"video","categoryS":"movies","magnet":"?xt=urn:btih:347eba3ef0035a0eda67a9bfc9419494c3bd73b9&amp;dn=Aatma+%282013%29+%28Audio+Cleaned%29+Untouched+Scam+Hindi+Horror+Movie&amp;tr=udp%3A%2F%2Ftracker.openbittorrent.com%3A80&amp;tr=udp%3A%2F%2Fopen.demonii.com%3A1337&amp;tr=udp%3A%2F%2Ftracker.coppersurfer.tk%3A6969&amp;tr=udp%3A%2F%2Fexodus.desync.com%3A6969","seeders":1,"leechers":0,"uploader":"shaan666","files":-1,"time":1363962064,"description":"[B]Aatma (2013)[/B]\n &lt;a href=&quot;\nhttp://www.shotpix.com/images/61826683906497233941.jpg&quot; rel=&quot;nofollow&quot; target=&quot;_NEW&quot;&gt;\nhttp://www.shotpix.com/images/61826683906497233941.jpg&lt;/a&gt;\n\n\n[B]INFO[/B]\n\n[code]VIDEO:\nGeneral\nFormat : MPEG-PS\nFile size : 433 MiB\nDuration : 1h 25mn\nOverall bit rate mode : Variable\nOverall bit rate : 711 Kbps\nVideo #224\nID : 224 (0xE0)\nFormat : MPEG Video\nFormat version : Version 2\nFormat profile : Main@Main\nFormat settings, BVOP : Yes\nFormat settings, Matrix : Default\nFormat settings, GOP : M=3, N=13\nDuration : 1h 25mn\nBit rate mode : Variable\nBit rate : 569 Kbps\nMaximum bit rate : 9 072 Kbps\nWidth : 352 pixels\nHeight : 288 pixels\nDisplay aspect ratio : 4:3\nFrame rate : 25.000 fps\nStandard : PAL\nColor space : YUV\nChroma subsampling : 4:2:0\nBit depth : 8 bits\nScan type : Progressive\nCompression mode : Lossy\nBits/(Pixel*Frame) : 0.224\nStream size : 346 MiB (80%)\n\n\nAUDIO:\nAudio #192\nID : 192 (0xC0)\nFormat : MPEG Audio\nFormat version : Version 1\nFormat profile : Layer 2\nDuration : 1h 25mn\nBit rate mode : Constant\nBit rate : 128 Kbps\nChannel(s) : 2 channels\nSampling rate : 48.0 KHz\nCompression mode : Lossy\nDelay relative to video : -1s 40ms\nStream size : 78.0 MiB (18%)[/code]\n\n\n\n[B]SCREEN SHOTS[/B]\n &lt;a href=&quot;\nhttp://www.shotpix.com/images/02771678104221504526.jpg&quot; rel=&quot;nofollow&quot; target=&quot;_NEW&quot;&gt;\nhttp://www.shotpix.com/images/02771678104221504526.jpg&lt;/a&gt;","torrent":{"xt":"urn:btih:347eba3ef0035a0eda67a9bfc9419494c3bd73b9","amp;dn":"Aatma+%282013%29+%28Audio+Cleaned%29+Untouched+Scam+Hindi+Horror+Movie","amp;tr":["udp%3A%2F%2Ftracker.openbittorrent.com%3A80","udp%3A%2F%2Fopen.demonii.com%3A1337","udp%3A%2F%2Ftracker.coppersurfer.tk%3A6969","udp%3A%2F%2Fexodus.desync.com%3A6969"],"infoHash":"347eba3ef0035a0eda67a9bfc9419494c3bd73b9","infoHashBuffer":{"type":"Buffer","data":[52,126,186,62,240,3,90,14,218,103,169,191,201,65,148,148,195,189,115,185]},"announce":[],"urlList":[]}}